<?xml version="1.0" standalone="no"?><!DOCTYPE svg PUBLIC "-//W3C//DTD SVG 1.1//EN" "http://www.w3.org/Graphics/SVG/1.1/DTD/svg11.dtd"><svg t="1697076206144" class="icon" viewBox="0 0 1024 1024" version="1.1" xmlns="http://www.w3.org/2000/svg" p-id="1896" xmlns:xlink="http://www.w3.org/1999/xlink" width="200" height="200"><path d="M298.688 192a64 64 0 1 0 128 0 64 64 0 0 0-128 0z m298.624 0a64 64 0 1 0 128 0 64 64 0 0 0-128 0zM298.688 512a64 64 0 1 0 128 0 64 64 0 0 0-128 0z m298.624 0a64 64 0 1 0 128 0 64 64 0 0 0-128 0z m-298.624 320a64 64 0 1 0 128 0 64 64 0 0 0-128 0z m298.624 0a64 64 0 1 0 128 0 64 64 0 0 0-128 0z" p-id="1897"></path></svg>