<?xml version="1.0" standalone="no"?><!DOCTYPE svg PUBLIC "-//W3C//DTD SVG 1.1//EN" "http://www.w3.org/Graphics/SVG/1.1/DTD/svg11.dtd"><svg t="1697034460567" class="icon" viewBox="0 0 1024 1024" version="1.1" xmlns="http://www.w3.org/2000/svg" p-id="2306" xmlns:xlink="http://www.w3.org/1999/xlink" width="200" height="200"><path d="M659.33090724 181.43206826L752.06907236 274.78797334l0.07721749 0.07721749 0.0772175 0.07721749 0.54052245 0.54052246 0.07721749 0.07721749 0.07721749 0.0772175L846.11993488 368.2210959h-36.7555097c-21.77532301 0-42.3923836 9.49774702-56.4459604 26.0995003L602.80772858 570.83970191c-20.69427809 24.32349873-33.12628908 55.21048127-35.05672485 87.10129122l-4.16974309 68.95518886-262.9254395-263.00265777 68.95518886-4.1697423c31.81359247-1.93043655 62.77779249-14.36244676 87.10129123-35.05672563l176.5191057-150.11073544c16.60175329-14.13079428 26.09950029-34.67063816 26.0995003-56.44596038V181.43206826zM649.75594272 120.04419063c-6.94957129 0-13.97635929 1.69878408-20.38540889 5.17356972-11.81427103 6.48626632-21.38923553 18.91827653-19.45879899 42.62403609v50.26856403c0 7.25844127-3.16591567 14.13079428-8.72557285 18.84105904L424.6670563 387.06215494c-16.29288331 13.8991418-36.67829221 22.0841922-58.06752697 23.39688958l-85.94302883 5.17356972c-12.0459235 0.69495743-23.62854206 5.40522219-32.43133242 13.66749009-6.02296137 5.71409217-11.27374857 13.35862012-12.20035772 23.39688881-0.92660914 9.88383447 2.8570457 19.61323396 9.88383448 26.64002274l0.15443498 0.15443499 115.51731477 113.97296568L121.82019222 905.19128848l-1.77600159 2.31652402 2.31652326-1.77600157 311.72687269-239.76020238 113.97296568 115.51731476 0.15443499 0.15443498c6.33183134 6.33183134 14.82575171 10.03826947 23.70575878 10.03826947 1.00382663 0 2.00765405-0.0772175 2.93426396-0.15443499 9.96105197-0.92660914 17.68279742-6.17739636 23.39688881-12.20035849 8.2622679-8.80279035 12.97253265-20.38540889 13.6674901-32.43133164l5.17356971-85.94302883c1.31269661-21.38923553 9.49774702-41.77464366 23.39688881-58.06752774L790.60058363 426.36584037c4.71026476-5.55965719 11.58261855-8.72557285 18.84105904-8.72557208h50.26856402c2.08487153 0.15443498 4.09252481 0.23165247 6.02296215 0.23165247 19.84488644 0 30.73254757-8.88000784 36.60107394-19.69045145 9.26609453-16.91062326 5.79130889-37.99098881-7.79896293-51.58126142l-0.0772175-0.07721748-106.79174268-106.09678526-0.54052169-0.54052246L681.02901273 133.17115827l-0.07721748-0.07721748c-8.49392037-8.49392037-19.76766895-13.04975016-31.19585253-13.04975016z" p-id="2307"></path></svg>